<svg xmlns="http://www.w3.org/2000/svg" width="900" height="430" viewBox="0 0 900 430">
  <rect width="900" height="430" fill="#fbfaf7"/>
  <text x="36" y="34" font-family="sans-serif" font-size="22" fill="#222">S07 head / bob-hair envelope evidence</text>
  <text x="36" y="59" font-family="sans-serif" font-size="13" fill="#666">primary-mass fidelity before eyes, nose, or mouth detail</text>
  <g transform="translate(170,95)">
    <path d="M120 82 C120 20 260 20 260 82 L248 190 L132 190 Z" fill="#d6c1a8" stroke="#8a5a22" stroke-width="4"/>
    <path d="M105 55 C95 15 285 15 275 55 L270 210 L110 210 Z" fill="none" stroke="#b45f06" stroke-width="10"/>
    <text x="75" y="252" font-family="sans-serif" font-size="15" fill="#8a4a00">reference: bob envelope</text>
    <text x="94" y="276" font-family="sans-serif" font-size="13" fill="#555">head 0.20 / hair 0.24</text>
  </g>
  <g transform="translate(525,72)">
    <path d="M85 105 C85 15 295 15 295 105 L275 245 L105 245 Z" fill="#d6c1a8" stroke="#8a5a22" stroke-width="4"/>
    <path d="M65 80 C52 0 328 0 315 80 L305 275 L75 275 Z" fill="none" stroke="#315b9a" stroke-width="12"/>
    <text x="59" y="313" font-family="sans-serif" font-size="15" fill="#244c88">drawing: oversized / helmet-like</text>
    <text x="92" y="337" font-family="sans-serif" font-size="13" fill="#555">head 0.34 / hair 0.40</text>
  </g>
</svg>
